<?xml version="1.0" encoding="UTF-8"?>
<svg xmlns="http://www.w3.org/2000/svg" viewBox="0 0 48 48">
    <!-- Drop shadow filter -->
    <defs>
        <filter id="shadow" x="-20%" y="-20%" width="140%" height="140%">
            <feDropShadow dx="1" dy="1" stdDeviation="1" flood-opacity="0.3"/>
        </filter>
    </defs>
    <!-- Main background with shadow -->
    <rect x="6" y="6" width="36" height="36" rx="6" fill="#F5F5F5" filter="url(#shadow)"/>
    <!-- Header bar -->
    <rect x="6" y="6" width="36" height="9" rx="6" fill="#1976D2"/>
    <!-- Content area -->
    <rect x="9" y="18" width="30" height="21" fill="white" rx="2"/>
    <!-- Grid lines -->
    <line x1="16" y1="18" x2="16" y2="39" stroke="#E3F2FD" stroke-width="1"/>
    <line x1="24" y1="18" x2="24" y2="39" stroke="#E3F2FD" stroke-width="1"/>
    <line x1="32" y1="18" x2="32" y2="39" stroke="#E3F2FD" stroke-width="1"/>
    <line x1="9" y1="25" x2="39" y2="25" stroke="#E3F2FD" stroke-width="1"/>
    <line x1="9" y1="32" x2="39" y2="32" stroke="#E3F2FD" stroke-width="1"/>
    <!-- Time indicators -->
    <rect x="6" y="18" width="3" height="3" fill="#2196F3" rx="1"/>
    <rect x="6" y="27" width="3" height="3" fill="#2196F3" rx="1"/>
    <rect x="6" y="36" width="3" height="3" fill="#2196F3" rx="1"/>
    <!-- Pencil icon -->
    <path d="M37,8 l3,3 l-1.5,1.5 l-3-3 z" fill="#FFD54F"/>
    <path d="M35.5,9.5 l3,3 l-4.5,1.5 z" fill="#FFA726"/>
    <!-- Decorative dots -->
    <circle cx="10.5" cy="10.5" r="1.2" fill="#fff" opacity="0.9"/>
    <circle cx="14.5" cy="10.5" r="1.2" fill="#fff" opacity="0.9"/>
    <circle cx="18.5" cy="10.5" r="1.2" fill="#fff" opacity="0.9"/>
</svg> 